<svg version="1.2" xmlns="http://www.w3.org/2000/svg" viewBox="0 0 1200 600" width="1200" height="600">
	<title>New Project</title>
	<style>
		.s0 { fill: #015ac4 } 
		.s1 { opacity: .7;fill: #ffffff } 
		.s2 { fill: #2e353a } 
		.s3 { fill: none;stroke: #2e353a;stroke-linecap: round;stroke-linejoin: round } 
		.s4 { fill: #2e353a;stroke: #2e353a;stroke-linecap: round;stroke-linejoin: round } 
		.s5 { fill: #ffffff;stroke: #2e353a;stroke-linecap: round;stroke-linejoin: round } 
		.s6 { fill: #ffffff;stroke: #2e353a;stroke-linecap: round;stroke-linejoin: round;stroke-width: 1.1 } 
		.s7 { mix-blend-mode: multiply;fill: #015ac4 } 
		.s8 { fill: #2e353a;stroke: #2e353a;stroke-linecap: round;stroke-linejoin: round;stroke-width: 1.1 } 
		.s9 { fill: #015ac4;stroke: #2e353a;stroke-linecap: round;stroke-linejoin: round;stroke-width: 1.1 } 
		.s10 { fill: #ffffff;stroke: #2e353a;stroke-miterlimit:10 } 
		.s11 { fill: none;stroke: #2e353a;stroke-miterlimit:10;stroke-width: .5 } 
		.s12 { fill: #2e353a;stroke: #2e353a;stroke-miterlimit:10;stroke-width: 1 } 
		.s13 { fill: #ffffff;stroke: #2e353a;stroke-miterlimit:10;stroke-width: 1 } 
		.s14 { fill: #015ac4;stroke: #2e353a;stroke-miterlimit:10;stroke-width: 1 } 
		.s15 { fill: none;stroke: #2e353a;stroke-miterlimit:10 } 
	</style>
	<path class="s0" d="m909.4 323.7c3.2-42.4-6.7-86.6-20-126.1-19.7-58.5-58-118.6-122.6-132.5-37.2-7.9-75.1 0.6-107 20.6-30.7 19.3-54.6 44.2-92.4 49-38.1 4.9-77.3 2.9-115.6 2.9-98.7 0-178.7 102.9-158.7 210.1 20 107.2 114.3 181.6 194.4 181.6 71.9 0 131.1-42.9 199.5-54.4 33.9-5.7 67.9 1 101.4-7.5 39-10 75.6-33.7 97.2-68 14.7-23.4 21.8-49.2 23.8-75.7z"/>
	<path class="s1" d="m909.4 323.7c3.2-42.4-6.7-86.6-20-126.1-19.7-58.5-58-118.6-122.6-132.5-37.2-7.9-75.1 0.6-107 20.6-30.7 19.3-54.6 44.2-92.4 49-38.1 4.9-77.3 2.9-115.6 2.9-98.7 0-178.7 102.9-158.7 210.1 20 107.2 114.3 181.6 194.4 181.6 71.9 0 131.1-42.9 199.5-54.4 33.9-5.7 67.9 1 101.4-7.5 39-10 75.6-33.7 97.2-68 14.7-23.4 21.8-49.2 23.8-75.7z"/>
	<path class="s2" d="m601.1 565c-170.3 0-308-3.8-308-8.6 0-4.7 137.7-8.5 308-8.5 170.4 0 308.1 3.8 308.1 8.5 0 4.8-137.7 8.6-308.1 8.6z"/>
	<path class="s3" d="m757.2 548.6h-28.5v-513.6l28.5 33.1v480.5z"/>
	<path class="s3" d="m729 427.7h27.9l-27.9-27h27.9l-27.9 27z"/>
	<path class="s3" d="m729 400h27.9l-27.9-27.1h27.9l-27.9 27.1z"/>
	<path class="s3" d="m729 482.9h27.9l-27.9-27.1h27.9l-27.9 27.1z"/>
	<path class="s3" d="m729 455.2h27.9l-27.9-27.1h27.9l-27.9 27.1z"/>
	<path class="s3" d="m729 372.3h27.9l-27.9-27.1h27.9l-27.9 27.1z"/>
	<path class="s3" d="m729 344.6h27.9l-27.9-27.1h27.9l-27.9 27.1z"/>
	<path class="s3" d="m729 316.8h27.9l-27.9-27h27.9l-27.9 27z"/>
	<path class="s3" d="m729 289.1h27.9l-27.9-27h27.9l-27.9 27z"/>
	<path class="s3" d="m729 261.4h27.9l-27.9-27h27.9l-27.9 27z"/>
	<path class="s3" d="m729 233.7h27.9l-27.9-27h27.9l-27.9 27z"/>
	<path class="s3" d="m729 206h27.9l-27.9-27h27.9l-27.9 27z"/>
	<path class="s3" d="m729 178.3h27.9l-27.9-27h27.9l-27.9 27z"/>
	<path class="s3" d="m729 150.6h27.9l-27.9-27h27.9l-27.9 27z"/>
	<path class="s3" d="m729 122.9h27.9l-27.9-27.1h27.9l-27.9 27.1z"/>
	<path class="s3" d="m729 95.2h27.9l-27.9-27.1h27.9l-27.9 27.1z"/>
	<path class="s3" d="m889.5 95.9l-13.8-8.7h-98.5l-12.1 8.7h124.4z"/>
	<path class="s4" d="m891.8 95.2v6.3h-240.7v-6.3z"/>
	<path class="s3" d="m875.7 87.2l-147-52.2 48.5 52.2"/>
	<path class="s3" d="m728.7 35l-77.6 60.2"/>
	<path class="s4" d="m777.8 108.6v38h-59.4v-38z"/>
	<path class="s4" d="m777.8 511.4v38h-59.4v-38z"/>
	<path class="s5" d="m765.4 116.5v11.1h-34.6v-11.1z"/>
	<path class="s5" d="m891.8 101.5v68.3"/>
	<path class="s4" d="m900.8 193.1v19.9h-17.6v-19.9z"/>
	<path class="s3" d="m883.2 193.1l8.8-24.6 8.8 24.6"/>
	<path class="s6" d="m657.3 506.5v-35.2h-103.8v35.3q0 4.2-0.7 8.5-0.7 4.2-2.1 8.2-1.5 4.1-3.5 7.8-2.1 3.8-4.8 7.1l-4.5 5.8h135l-4.6-5.8q-2.6-3.3-4.7-7.1-2.1-3.7-3.5-7.8-1.4-4-2.1-8.3-0.7-4.2-0.7-8.5z"/>
	<path class="s7" d="m547.1 531.2h116.6q-1.6-2.8-2.7-5.8-1.2-3-2-6.1-0.8-3.1-1.2-6.3-0.4-3.2-0.4-6.5v-35.2h-103.9v35.3q0 3.2-0.4 6.4-0.4 3.2-1.2 6.3-0.8 3.1-2 6.1-1.2 3-2.8 5.8z"/>
	<path class="s8" d="m657.3 476.6v14.9h-103.8v-14.9z"/>
	<path class="s8" d="m411.5 169.5h387.8c8.1 0 14.7 6.6 14.7 14.7v283.5c0 8.1-6.6 14.7-14.7 14.7h-387.8c-8.1 0-14.7-6.6-14.7-14.7v-283.5c0-8.1 6.6-14.7 14.7-14.7z"/>
	<path class="s6" d="m396.8 433.8h417.2v33.9c0 1.9-0.4 3.8-1.1 5.6-0.8 1.8-1.8 3.4-3.2 4.8-1.4 1.4-3 2.4-4.8 3.2-1.8 0.7-3.7 1.1-5.6 1.1h-387.7c-1.9 0-3.8-0.4-5.6-1.1-1.8-0.8-3.4-1.8-4.8-3.2-1.3-1.4-2.4-3-3.2-4.8-0.7-1.8-1.1-3.7-1.1-5.6v-33.9z"/>
	<path class="s9" d="m793 189v221h-375.2v-221z"/>
	<path class="s8" d="m613.1 458.1c0-3.1-1.9-5.9-4.7-7.1-2.9-1.2-6.2-0.6-8.4 1.6-2.2 2.2-2.9 5.5-1.7 8.4 1.2 2.9 4 4.8 7.1 4.8q1.5 0 3-0.6 1.4-0.6 2.5-1.7 1-1 1.6-2.5 0.6-1.4 0.6-2.9z"/>
	<path class="s6" d="m672.9 543.9v6.3h-135v-6.3z"/>
	<path class="s10" d="m799.3 552.2h-5.3l-34.1-279.7h5.3l34.1 279.7z"/>
	<path class="s10" d="m840.4 552.2h-5.2l-34.1-279.7h5.3l34 279.7z"/>
	<path class="s10" d="m806.7 295.6h-41.2l-1-8.6h41.1l1.1 8.6z"/>
	<path class="s10" d="m810.6 327.5h-41.2l-1-8.6h41.1l1.1 8.6z"/>
	<path class="s10" d="m814.5 359.4h-41.2l-1-8.7h41.1l1.1 8.7z"/>
	<path class="s10" d="m818.3 391.2h-41.1l-1.1-8.6h41.2l1 8.6z"/>
	<path class="s10" d="m822.2 423.1h-41.1l-1.1-8.6h41.2l1 8.6z"/>
	<path class="s10" d="m826.1 454.9h-41.1l-1.1-8.6h41.2l1 8.6z"/>
	<path class="s10" d="m830 486.8h-41.2l-1-8.6h41.1l1.1 8.6z"/>
	<path class="s10" d="m833.9 518.7h-41.2l-1-8.7h41.1l1.1 8.7z"/>
	<path class="s11" d="m764.9 290.4h5.4"/>
	<path class="s11" d="m766.2 292.9h10.4"/>
	<path class="s11" d="m806.1 292.9h-7.6"/>
	<path class="s11" d="m809.9 323.6h-7"/>
	<path class="s11" d="m770 325.2h16.1"/>
	<path class="s11" d="m772.8 355h14"/>
	<path class="s11" d="m773.5 357.5h7.6"/>
	<path class="s11" d="m818.1 386.3h-8.6"/>
	<path class="s11" d="m817.5 388.8h-14.3"/>
	<path class="s11" d="m829.9 483.6h-13.1"/>
	<path class="s11" d="m788.3 481.2h7.9"/>
	<path class="s11" d="m814.8 483.6h-10.3"/>
	<path class="s11" d="m792.3 514.1h11"/>
	<path class="s11" d="m794.6 516.8h12.7"/>
	<path class="s11" d="m782 420.2h3.5"/>
	<path class="s11" d="m820.8 419.4h-13.1"/>
	<path class="s8" d="m490.7 384.9l-6.2 8.2-136.4-106.5 6.3-8.2 136.3 106.5z"/>
	<path class="s8" d="m348.1 384.9l6.3 8.2 136.3-106.5-6.2-8.2-136.4 106.5z"/>
	<path class="s8" d="m490.7 504.5l-3.8 10.6-138.8-108.9 4-10.6 138.6 108.9z"/>
	<path class="s8" d="m348.1 504.5l0.9 12.4 141.7-110.7-6.2-8.1-136.4 106.4z"/>
	<path class="s8" d="m351.3 277.3v274.9h-5.5v-274.9z"/>
	<path class="s8" d="m491.5 277.3v274.9h-5.5v-274.9z"/>
	<path class="s6" d="m464.1 384.9l-6.3 8.2-136.4-106.5 6.3-8.2 136.4 106.5z"/>
	<path class="s6" d="m321.4 384.9l6.3 8.2 136.4-106.5-6.3-8.2-136.4 106.5z"/>
	<path class="s6" d="m464.1 504.5l-3.9 10.6-138.8-108.9 2-10.6 140.7 108.9z"/>
	<path class="s6" d="m321.4 504.5l0.9 12.4 141.8-110.7-6.3-8.1-136.4 106.4z"/>
	<path class="s6" d="m324.6 277.3v274.9h-5.5v-274.9z"/>
	<path class="s6" d="m464.8 277.3v274.9h-5.5v-274.9z"/>
	<path class="s6" d="m471.9 274.8v8.7h-160v-8.7z"/>
	<path class="s8" d="m496.6 274.8v8.7h-44.4v-8.7z"/>
	<path class="s6" d="m471.9 388.8v8.7h-160v-8.7z"/>
	<path class="s8" d="m496.6 388.8v8.7h-44.4v-8.7z"/>
	<path class="s12" d="m671.3 552.2h-12.5l16.7-97.9h12.6l-16.8 97.9z"/>
	<path class="s13" d="m696.4 552.2h12.5l-16.7-97.9h-12.5l16.7 97.9z"/>
	<path class="s12" d="m849.2 552.2h-12.5l16.7-97.9h12.5l-16.7 97.9z"/>
	<path class="s13" d="m874.3 552.2h12.5l-16.7-97.9h-12.5l16.7 97.9z"/>
	<path class="s14" d="m883 426v33.2h-239v-33.2z"/>
	<path class="s14" d="m888.9 426v33.2h-239.1v-33.2z"/>
	<path class="s2" d="m653.7 459.2h20.3l10.5-33.2h-20.3l-10.5 33.2z"/>
	<path class="s2" d="m734 426h-20.3l-10.5 33.2h20.3l10.5-33.2z"/>
	<path class="s2" d="m882.6 426h-20.3l-10.5 33.2h20.3l10.5-33.2z"/>
	<path class="s2" d="m833.1 426h-20.3l-10.5 33.2h20.3l10.5-33.2z"/>
	<path class="s2" d="m783.6 426h-20.3l-10.5 33.2h20.3l10.5-33.2z"/>
	<path class="s15" d="m887.5 440.8h-39.5"/>
	<path class="s15" d="m886.8 446.3h-6.2"/>
	<path class="s15" d="m648.8 444.9h39.5"/>
	<path class="s15" d="m649.5 438.7h49.9"/>
</svg>